<svg width="132" height="48" viewBox="0 0 132 48" fill="none" xmlns="http://www.w3.org/2000/svg">
<path d="M23.7729 1.30927H107.773C120.199 1.30927 130.273 11.3829 130.273 23.8093C130.273 36.2357 120.199 46.3093 107.773 46.3093H23.7729C11.3465 46.3093 1.27295 36.2357 1.27295 23.8093C1.27295 11.3829 11.3465 1.30927 23.7729 1.30927Z" stroke="#F87F28" stroke-width="2"/>
<path d="M43.7495 26.1511C43.6265 27.2038 43.2368 28.0173 42.5806 28.5915C41.9289 29.1612 41.0607 29.446 39.9761 29.446C38.8003 29.446 37.8569 29.0244 37.146 28.1813C36.4396 27.3382 36.0864 26.2103 36.0864 24.7975V23.8405C36.0864 22.9154 36.2505 22.1019 36.5786 21.4001C36.9113 20.6983 37.3807 20.1605 37.9868 19.7868C38.5929 19.4085 39.2948 19.2194 40.0923 19.2194C41.1496 19.2194 41.9972 19.5156 42.6353 20.1081C43.2733 20.696 43.6447 21.5117 43.7495 22.5554H42.4302C42.3162 21.7624 42.0679 21.1882 41.6851 20.8327C41.3068 20.4772 40.7759 20.2995 40.0923 20.2995C39.2537 20.2995 38.5952 20.6094 38.1167 21.2292C37.6427 21.849 37.4058 22.7308 37.4058 23.8747V24.8386C37.4058 25.9186 37.6313 26.7777 38.0825 27.4157C38.5337 28.0537 39.1649 28.3727 39.9761 28.3727C40.7052 28.3727 41.2635 28.2087 41.6509 27.8806C42.0428 27.5479 42.3026 26.9714 42.4302 26.1511H43.7495ZM45.0142 25.5427C45.0142 24.8181 45.1554 24.1664 45.438 23.5876C45.7251 23.0088 46.1216 22.5622 46.6274 22.2477C47.1379 21.9333 47.7189 21.7761 48.3706 21.7761C49.3778 21.7761 50.1912 22.1247 50.811 22.822C51.4354 23.5192 51.7476 24.4466 51.7476 25.6042V25.6931C51.7476 26.4131 51.6086 27.0602 51.3306 27.6345C51.0571 28.2041 50.6629 28.6485 50.1479 28.9675C49.6375 29.2865 49.0496 29.446 48.3843 29.446C47.3817 29.446 46.5682 29.0974 45.9438 28.4001C45.3241 27.7028 45.0142 26.78 45.0142 25.6315V25.5427ZM46.2856 25.6931C46.2856 26.5134 46.4748 27.1719 46.853 27.6686C47.2358 28.1654 47.7463 28.4138 48.3843 28.4138C49.0269 28.4138 49.5373 28.1631 49.9155 27.6618C50.2938 27.1559 50.4829 26.4496 50.4829 25.5427C50.4829 24.7315 50.2892 24.0752 49.9019 23.5739C49.519 23.0681 49.0086 22.8151 48.3706 22.8151C47.7463 22.8151 47.2427 23.0635 46.8599 23.5602C46.4771 24.057 46.2856 24.7679 46.2856 25.6931ZM54.5298 21.9128L54.5708 22.8425C55.1359 22.1315 55.8742 21.7761 56.7856 21.7761C58.3488 21.7761 59.1372 22.6579 59.1509 24.4216V29.3093H57.8862V24.4147C57.8817 23.8815 57.7586 23.4873 57.5171 23.2321C57.2801 22.9769 56.9087 22.8493 56.4028 22.8493C55.9927 22.8493 55.6326 22.9587 55.3228 23.1774C55.0129 23.3962 54.7713 23.6833 54.5981 24.0388V29.3093H53.3335V21.9128H54.5298ZM62.7739 20.1218V21.9128H64.1548V22.8903H62.7739V27.4772C62.7739 27.7735 62.8354 27.9968 62.9585 28.1472C63.0815 28.293 63.2912 28.3659 63.5874 28.3659C63.7332 28.3659 63.9338 28.3386 64.189 28.2839V29.3093C63.8563 29.4004 63.5327 29.446 63.2183 29.446C62.6532 29.446 62.2271 29.2751 61.9399 28.9333C61.6528 28.5915 61.5093 28.1061 61.5093 27.4772V22.8903H60.1626V21.9128H61.5093V20.1218H62.7739ZM70.2046 29.3093C70.1317 29.1634 70.0724 28.9037 70.0269 28.53C69.439 29.1406 68.7371 29.446 67.9214 29.446C67.1922 29.446 66.5929 29.2409 66.1235 28.8307C65.6587 28.416 65.4263 27.8919 65.4263 27.2585C65.4263 26.4883 65.7179 25.8913 66.3013 25.4675C66.8892 25.0391 67.714 24.8249 68.7759 24.8249H70.0063V24.2438C70.0063 23.8018 69.8742 23.4509 69.6099 23.1911C69.3455 22.9268 68.9559 22.7946 68.4409 22.7946C67.9897 22.7946 67.6115 22.9085 67.3062 23.1364C67.0008 23.3643 66.8481 23.64 66.8481 23.9636H65.5767C65.5767 23.5944 65.7065 23.239 65.9663 22.8972C66.2306 22.5508 66.5861 22.2774 67.0327 22.0768C67.4839 21.8763 67.9784 21.7761 68.5161 21.7761C69.3683 21.7761 70.036 21.9903 70.519 22.4186C71.0021 22.8425 71.2528 23.4281 71.271 24.1755V27.5798C71.271 28.2588 71.3576 28.7988 71.5308 29.1999V29.3093H70.2046ZM68.106 28.3454C68.5024 28.3454 68.8784 28.2429 69.2339 28.0378C69.5894 27.8327 69.8468 27.5661 70.0063 27.238V25.7204H69.0151C67.4657 25.7204 66.6909 26.1738 66.6909 27.0807C66.6909 27.4772 66.8231 27.7871 67.0874 28.0104C67.3517 28.2337 67.6912 28.3454 68.106 28.3454ZM76.2202 28.4138C76.6714 28.4138 77.0656 28.277 77.4028 28.0036C77.7401 27.7302 77.9269 27.3884 77.9634 26.9782H79.1597C79.1369 27.402 78.991 27.8054 78.7222 28.1882C78.4533 28.571 78.0933 28.8763 77.6421 29.1042C77.1955 29.3321 76.7215 29.446 76.2202 29.446C75.2131 29.446 74.411 29.111 73.814 28.4411C73.2215 27.7666 72.9253 26.846 72.9253 25.6794V25.4675C72.9253 24.7474 73.0575 24.1071 73.3218 23.5466C73.5861 22.986 73.9644 22.5508 74.4565 22.2409C74.9533 21.931 75.5389 21.7761 76.2134 21.7761C77.0428 21.7761 77.731 22.0244 78.2778 22.5212C78.8293 23.0179 79.1232 23.6628 79.1597 24.4557H77.9634C77.9269 23.9772 77.7446 23.5853 77.4165 23.28C77.0929 22.9701 76.6919 22.8151 76.2134 22.8151C75.5708 22.8151 75.0718 23.0475 74.7163 23.5124C74.3654 23.9727 74.1899 24.6403 74.1899 25.5153V25.7546C74.1899 26.6068 74.3654 27.263 74.7163 27.7233C75.0672 28.1836 75.5685 28.4138 76.2202 28.4138ZM82.2974 20.1218V21.9128H83.6782V22.8903H82.2974V27.4772C82.2974 27.7735 82.3589 27.9968 82.4819 28.1472C82.605 28.293 82.8146 28.3659 83.1108 28.3659C83.2567 28.3659 83.4572 28.3386 83.7124 28.2839V29.3093C83.3797 29.4004 83.0562 29.446 82.7417 29.446C82.1766 29.446 81.7505 29.2751 81.4634 28.9333C81.1763 28.5915 81.0327 28.1061 81.0327 27.4772V22.8903H79.686V21.9128H81.0327V20.1218H82.2974Z" fill="#F87F28"/>
</svg>
