<svg width="48" height="11" viewBox="0 0 48 11" fill="none" xmlns="http://www.w3.org/2000/svg">
<path d="M7.74951 7.15106C7.62646 8.2038 7.23682 9.01727 6.58057 9.59149C5.92887 10.1612 5.06071 10.446 3.97607 10.446C2.80029 10.446 1.85693 10.0244 1.146 9.18134C0.439616 8.33824 0.0864258 7.21031 0.0864258 5.79755V4.84052C0.0864258 3.91538 0.250488 3.10191 0.578613 2.40009C0.911296 1.69826 1.3807 1.1605 1.98682 0.786804C2.59294 0.408549 3.29476 0.219421 4.09229 0.219421C5.14958 0.219421 5.99723 0.515645 6.63525 1.10809C7.27327 1.69598 7.64469 2.51174 7.74951 3.55536H6.43018C6.31624 2.76239 6.06787 2.18817 5.68506 1.8327C5.3068 1.47723 4.77588 1.2995 4.09229 1.2995C3.25374 1.2995 2.59521 1.6094 2.1167 2.22919C1.64274 2.84898 1.40576 3.73081 1.40576 4.87469V5.83856C1.40576 6.91864 1.63135 7.77769 2.08252 8.41571C2.53369 9.05373 3.16488 9.37274 3.97607 9.37274C4.70524 9.37274 5.26351 9.20868 5.65088 8.88055C6.04281 8.54787 6.30257 7.97137 6.43018 7.15106H7.74951ZM9.01416 6.54266C9.01416 5.81805 9.15544 5.16636 9.43799 4.58759C9.7251 4.00881 10.1216 3.56219 10.6274 3.24774C11.1379 2.93329 11.7189 2.77606 12.3706 2.77606C13.3778 2.77606 14.1912 3.12469 14.811 3.82196C15.4354 4.51923 15.7476 5.44663 15.7476 6.60419V6.69305C15.7476 7.41311 15.6086 8.06024 15.3306 8.63446C15.0571 9.20412 14.6629 9.64846 14.1479 9.96747C13.6375 10.2865 13.0496 10.446 12.3843 10.446C11.3817 10.446 10.5682 10.0974 9.94385 9.40009C9.32406 8.70282 9.01416 7.77997 9.01416 6.63153V6.54266ZM10.2856 6.69305C10.2856 7.51337 10.4748 8.1719 10.853 8.66864C11.2358 9.16538 11.7463 9.41376 12.3843 9.41376C13.0269 9.41376 13.5373 9.16311 13.9155 8.6618C14.2938 8.15594 14.4829 7.44956 14.4829 6.54266C14.4829 5.73147 14.2892 5.07522 13.9019 4.57391C13.519 4.06805 13.0086 3.81512 12.3706 3.81512C11.7463 3.81512 11.2427 4.0635 10.8599 4.56024C10.4771 5.05699 10.2856 5.76792 10.2856 6.69305ZM18.5298 2.91278L18.5708 3.84247C19.1359 3.13153 19.8742 2.77606 20.7856 2.77606C22.3488 2.77606 23.1372 3.6579 23.1509 5.42157V10.3093H21.8862V5.41473C21.8817 4.88153 21.7586 4.48733 21.5171 4.23212C21.2801 3.97691 20.9087 3.8493 20.4028 3.8493C19.9927 3.8493 19.6326 3.95868 19.3228 4.17743C19.0129 4.39618 18.7713 4.68329 18.5981 5.03876V10.3093H17.3335V2.91278H18.5298ZM26.7739 1.12177V2.91278H28.1548V3.89032H26.7739V8.47723C26.7739 8.77346 26.8354 8.99677 26.9585 9.14716C27.0815 9.29299 27.2912 9.36591 27.5874 9.36591C27.7332 9.36591 27.9338 9.33856 28.189 9.28387V10.3093C27.8563 10.4004 27.5327 10.446 27.2183 10.446C26.6532 10.446 26.2271 10.2751 25.9399 9.93329C25.6528 9.59149 25.5093 9.10614 25.5093 8.47723V3.89032H24.1626V2.91278H25.5093V1.12177H26.7739ZM34.2046 10.3093C34.1317 10.1634 34.0724 9.90367 34.0269 9.52997C33.439 10.1406 32.7371 10.446 31.9214 10.446C31.1922 10.446 30.5929 10.2409 30.1235 9.83075C29.6587 9.41604 29.4263 8.89195 29.4263 8.25848C29.4263 7.4883 29.7179 6.8913 30.3013 6.46747C30.8892 6.03908 31.714 5.82489 32.7759 5.82489H34.0063V5.24384C34.0063 4.80178 33.8742 4.45087 33.6099 4.1911C33.3455 3.92678 32.9559 3.79462 32.4409 3.79462C31.9897 3.79462 31.6115 3.90855 31.3062 4.13641C31.0008 4.36428 30.8481 4.63999 30.8481 4.96356H29.5767C29.5767 4.59442 29.7065 4.23895 29.9663 3.89716C30.2306 3.5508 30.5861 3.27736 31.0327 3.07684C31.4839 2.87632 31.9784 2.77606 32.5161 2.77606C33.3683 2.77606 34.036 2.99025 34.519 3.41864C35.0021 3.84247 35.2528 4.42808 35.271 5.17548V8.57977C35.271 9.25881 35.3576 9.79885 35.5308 10.1999V10.3093H34.2046ZM32.106 9.3454C32.5024 9.3454 32.8784 9.24286 33.2339 9.03778C33.5894 8.8327 33.8468 8.5661 34.0063 8.23798V6.7204H33.0151C31.4657 6.7204 30.6909 7.17385 30.6909 8.08075C30.6909 8.47723 30.8231 8.78713 31.0874 9.01044C31.3517 9.23374 31.6912 9.3454 32.106 9.3454ZM40.2202 9.41376C40.6714 9.41376 41.0656 9.27704 41.4028 9.0036C41.7401 8.73016 41.9269 8.38837 41.9634 7.97821H43.1597C43.1369 8.40204 42.991 8.80536 42.7222 9.18817C42.4533 9.57098 42.0933 9.87632 41.6421 10.1042C41.1955 10.3321 40.7215 10.446 40.2202 10.446C39.2131 10.446 38.411 10.111 37.814 9.4411C37.2215 8.76662 36.9253 7.84605 36.9253 6.67938V6.46747C36.9253 5.74742 37.0575 5.10712 37.3218 4.54657C37.5861 3.98602 37.9644 3.5508 38.4565 3.24091C38.9533 2.93101 39.5389 2.77606 40.2134 2.77606C41.0428 2.77606 41.731 3.02443 42.2778 3.52118C42.8293 4.01792 43.1232 4.66278 43.1597 5.45575H41.9634C41.9269 4.97723 41.7446 4.58531 41.4165 4.27997C41.0929 3.97007 40.6919 3.81512 40.2134 3.81512C39.5708 3.81512 39.0718 4.04755 38.7163 4.51239C38.3654 4.97268 38.1899 5.64032 38.1899 6.51532V6.75458C38.1899 7.60679 38.3654 8.26304 38.7163 8.72333C39.0672 9.18361 39.5685 9.41376 40.2202 9.41376ZM46.2974 1.12177V2.91278H47.6782V3.89032H46.2974V8.47723C46.2974 8.77346 46.3589 8.99677 46.4819 9.14716C46.605 9.29299 46.8146 9.36591 47.1108 9.36591C47.2567 9.36591 47.4572 9.33856 47.7124 9.28387V10.3093C47.3797 10.4004 47.0562 10.446 46.7417 10.446C46.1766 10.446 45.7505 10.2751 45.4634 9.93329C45.1763 9.59149 45.0327 9.10614 45.0327 8.47723V3.89032H43.686V2.91278H45.0327V1.12177H46.2974Z" fill="#F87F28"/>
</svg>
