<svg width="111" height="111" viewBox="0 0 111 111" fill="none" xmlns="http://www.w3.org/2000/svg">
<g filter="url(#filter0_d_0_1)">
<path d="M29.3931 47.7946C29.3931 37.8534 37.4519 29.7946 47.3931 29.7946H63.3931C73.3342 29.7946 81.3931 37.8534 81.3931 47.7946V63.7946C81.3931 73.7357 73.3342 81.7946 63.3931 81.7946H47.3931C37.4519 81.7946 29.3931 73.7357 29.3931 63.7946V47.7946Z" fill="white"/>
</g>
<path d="M45.1841 48.0516L52.7571 55.7946L51.3741 57.2086L48.0038 53.7626C47.5709 54.5131 47.3895 55.3877 47.4872 56.2533C47.5849 57.1189 47.9564 57.9282 48.5451 58.5581C49.1339 59.1881 49.9078 59.6043 50.7491 59.7434C51.5904 59.8824 52.453 59.7368 53.206 59.3287C53.9589 58.9206 54.5609 58.2722 54.9205 57.4822C55.28 56.6922 55.3774 55.8037 55.1979 54.9519C55.0183 54.1001 54.5717 53.3316 53.9258 52.7631C53.2799 52.1947 52.4701 51.8574 51.6196 51.8026L49.8543 49.9976C51.1885 49.6317 52.6063 49.7589 53.8579 50.3567C55.1095 50.9545 56.1147 51.9846 56.6965 53.2656C57.2784 54.5467 57.3996 55.9965 57.0387 57.36C56.6779 58.7234 55.8582 59.9129 54.724 60.7192C53.5898 61.5255 52.2137 61.8968 50.838 61.7677C49.4624 61.6386 48.1754 61.0175 47.2036 60.0137C46.2318 59.0098 45.6375 57.6876 45.5254 56.2798C45.4132 54.8721 45.7904 53.469 46.5906 52.3176L45.1929 50.8886C44.0266 52.4259 43.4482 54.3452 43.566 56.2871C43.6838 58.229 44.4897 60.0605 45.8329 61.4387C47.176 62.8169 48.9644 63.6474 50.8633 63.7747C52.7621 63.9021 54.6412 63.3175 56.149 62.1304C57.6567 60.9434 58.6896 59.2352 59.0545 57.3257C59.4193 55.4161 59.091 53.4361 58.131 51.7561C57.1711 50.0762 55.6452 48.8115 53.8391 48.1989C52.033 47.5862 50.0705 47.6675 48.3187 48.4276L46.8497 46.9266C48.2461 46.1806 49.7986 45.7921 51.3741 45.7946C56.7758 45.7946 61.1545 50.2716 61.1545 55.7946C61.1545 61.3176 56.7758 65.7946 51.3741 65.7946C45.9724 65.7946 41.5938 61.3176 41.5938 55.7946C41.5923 54.3123 41.9137 52.8484 42.5348 51.509C43.1558 50.1697 44.0609 48.9886 45.1841 48.0516Z" fill="#BFBFBF"/>
<defs>
<filter id="filter0_d_0_1" x="0.393066" y="0.794556" width="110" height="110" filterUnits="userSpaceOnUse" color-interpolation-filters="sRGB">
<feFlood flood-opacity="0" result="BackgroundImageFix"/>
<feColorMatrix in="SourceAlpha" type="matrix" values="0 0 0 0 0 0 0 0 0 0 0 0 0 0 0 0 0 0 127 0" result="hardAlpha"/>
<feOffset/>
<feGaussianBlur stdDeviation="14.5"/>
<feColorMatrix type="matrix" values="0 0 0 0 0.266667 0 0 0 0 0.345098 0 0 0 0 0.564706 0 0 0 0.12 0"/>
<feBlend mode="normal" in2="BackgroundImageFix" result="effect1_dropShadow_0_1"/>
<feBlend mode="normal" in="SourceGraphic" in2="effect1_dropShadow_0_1" result="shape"/>
</filter>
</defs>
</svg>
